<?xml version="1.0" encoding="UTF-8"?>
<svg id="Layer_2" data-name="Layer 2" xmlns="http://www.w3.org/2000/svg" viewBox="0 0 471.01 125.58">
  <defs>
    <style>
      .cls-1 {
        fill: #537e43;
      }

      .cls-2 {
        fill: #545454;
      }

      .cls-3 {
        fill: #f2b326;
      }

      .cls-4 {
        fill: #054f79;
      }

      .cls-5 {
        fill: #103f27;
      }

      .cls-6 {
        fill: #eaefec;
      }

      .cls-7 {
        fill: #003823;
      }

      .cls-8 {
        fill: #53823c;
      }

      .cls-9 {
        fill: #003924;
      }
    </style>
  </defs>
  <g id="Layer_1-2" data-name="Layer 1">
    <g>
      <g>
        <path class="cls-5" d="M110.42,106.08c-12.95,13.19-30.77,20.33-49.28,19.42-12.26-.61-23.94-4.62-33.97-11.63-10.6-7.41-18.83-17.77-23.41-29.9-1.78-4.72-2.89-9.59-3.42-14.62C-1.69,50.1,5.47,31.25,19.45,17.96c3.17-3.02,6.58-5.72,10.29-8.03,3.93-2.45,8.06-4.53,12.42-6.1C54.11-.47,67.28-1.18,79.63,1.84c12.47,3.05,23.78,9.84,32.41,19.32,4.2,4.6,7.67,9.72,10.33,15.34,4.74,10.01,6.67,20.62,5.76,31.67-1.19,14.43-7.62,27.63-17.72,37.91Z"/>
        <path class="cls-6" d="M58.81,121.15c-12.28-1.17-23.61-5.8-33.13-13.63-4.55-3.74-8.49-8.14-11.79-13-2.39-3.52-4.31-7.25-5.86-11.21-1.69-4.3-2.79-8.69-3.39-13.29-1.25-9.56.08-19.46,3.7-28.39,1.06-2.62,2.21-5.08,3.65-7.53,2.07-3.52,4.43-6.84,7.17-9.88C29.05,13.31,42.22,6.4,56.9,4.62c21.24-2.57,42.22,6.21,55.21,23.13,5.97,7.78,9.86,16.86,11.4,26.54,1.34,8.45.72,16.8-1.77,24.99-1.75,5.76-4.38,11.14-7.83,16.08-8.23,11.77-20.15,20.23-34.04,23.98-6.87,1.86-13.97,2.48-21.06,1.81Z"/>
        <g>
          <path class="cls-8" d="M38.26,94.55l-7.43,4.58c-1.67,1.03-3.11,2.27-4.6,3.6l-3.54-3.5c-2.31-2.45-4.32-5.05-6.09-7.91-1.07-1.64-2.02-3.23-2.83-5.02-1.37-2.68-2.41-5.4-3.28-8.29-.8-2.67-1.45-5.3-1.8-8.08,7.38-.02,15.58,1.3,22.6,3.57,8.2,2.65,17.58,7.36,24.35,12.67l1.11,1.03c-2.59.67-4.96,1.5-7.42,2.41-3.81,1.42-7.47,2.96-11.09,4.94Z"/>
          <path class="cls-8" d="M90.53,80.56c-4.36-2.83-8.81-5.25-13.63-7.39,1.35-.96,2.73-1.58,4.18-2.21,2.64-1.26,5.28-2.27,8.06-3.21,3.68-1.24,7.34-2.16,11.2-2.72,6.64-1,12.99-1.09,19.66.04-.12,4.14-.76,8.15-1.91,12.11-.41,1.42-.8,2.75-1.42,4.14-4.64-.81-9.26-1.29-13.98-1.4-4.06-.02-7.99.18-12.16.64Z"/>
          <path class="cls-8" d="M43,74.78c.07-.01.1-.06.1-.1,0-.06-.03-.11-.07-.18-1.18-2.02-1.94-2.78-4-3.95-1.63-.93-3.36-.99-4.09-1.99-.97-1.34-1.41-3.01-1.48-4.6l10.36,1.61c5.51,1.03,10.87,2.38,16.2,4.08,6.88,2.19,15.51,5.84,21.72,9.43l3.45,2.33c-5.2.76-10.19,1.63-15.26,2.72l-9,1.94c-1.58-1.45-3.22-2.7-5.01-3.91-4.15-2.8-8.49-5.18-12.93-7.39Z"/>
          <path class="cls-8" d="M78.3,69.31l-4.66,2.29-7.83-3.03-8.31-2.55c3.76-1.64,7.46-2.89,11.32-3.89,13.61-3.58,27.66-4.12,41.36-.21-3.71.12-7.3.36-10.95,1.02-3,.55-5.87,1.14-8.79,2-4.17,1.15-8.15,2.55-12.13,4.37Z"/>
          <path class="cls-8" d="M27.27,63.26c-.07.94-.16,1.9-.57,2.81-.81,1.79-3.22,1.34-4.92,1.83-4.38-.65-8.83-1.03-13.38-.95l-.11-3.36c5.81-.88,11.25-.9,17.15-.53l1.83.2Z"/>
          <path class="cls-2" d="M67.53,88.04c-1.4.81-2.52.69-3.99.24l6.24-1.51-2.25,1.27Z"/>
          <path class="cls-5" d="M120.02,61.65c-8.88-3.09-19.03-5.31-28.43-5.34-9.1-.03-18.02,1.38-26.8,4.04,1.13-1.31,2.38-2.35,3.71-3.44,9.58-7.88,22.61-12.62,35.05-12.67,4.6-.02,9.09.74,13.46,2.01.27.08.4.2.5.43,1.5,4.94,2.42,9.67,2.5,14.98Z"/>
          <g>
            <path class="cls-5" d="M33.47,63.96l.21.29c.2,1.71.67,4.06,2.33,4.88,1.75.6,3.37,1.22,4.85,2.38.58.45,2.38,2.44,2.41,3.07.01.24-.03.28-.28.19-6.42-3.19-14.11-5.72-21.22-6.87l.19-.25,2.35-.33c.76-.12,1.69-.39,2.08-1.11.45-.83.58-1.79.65-2.72l.21-.23c.13-1.82-.74-3.73-2.2-4.92-.97-.8-2.01-1.47-3.18-2.04-.48,1.16-1.93,1.8-3.15,2.03-.55.1-1.05-.13-1.53-.4l-.8.34c-1.24.31-2.63-.06-3.52-.94-.65-.64-.68-1.47-.13-2.15l1.01-.93c-.5.07-.78.33-1.16.51-.93.44-2.06.19-2.66-.69-.39-.58-.64-1.29-.73-1.98-.13-.97.29-1.8.59-2.67l.52-1.52c.37-1.08.82-1.8,1.77-2.42.5-.33.9-.7,1.57-.79.72-.1,1.33-.02,1.96.52-.09-.72.03-1.17.49-1.65-.21-.18-.44-.15-.65-.15-1.03.03-1.75-.62-1.9-1.61-.17-1.1.16-2.1.68-3.08.96-1.84,2.35-3.39,4.26-4.25,1.01-.46,2.15-.56,3.17-.17.55.21.86.66,1.3,1.02,0-.86-.67-1.67-.22-2.56l.96-1.29c.55-.74,1.36-1.13,2.31-.92.35-.66.89-1.05,1.58-1.3,1.88-.66,3.91-.59,5.79.08,1.09.39.94,1.51,1.57,1.35.94-.18,1.74.33,2.02,1.25.73.57.87,1.57.31,2.32l-.92.68c.39-.06.7-.21.98-.42,1.52-1.17,3.44-1.5,5.29-1.02,1.31.34,2.42.97,3.29,2.03.91.21,1.48.95,1.5,1.9.37.21.78.31,1.02.67.8,1.19.84,2.87-.05,4-1.22,1.55-3.16,1.82-4.84.78-.08.5.24.91.05,1.23-.64,1.11-2.33.43-2.58,1.38,1.03-.09,1.91-.49,2.77-.98.68-.38,1.37.21,1.89.42.74-.29,1.51-.67,2.34-.55,1.36.2,2.53.36,2.94,1.79.45-.27.85-.28,1.3-.22,1.17.15,2.26.76,2.76,1.82.24.51.31,1.02-.09,1.52.41.16.65.34.84.71.64,1.31.47,2.97-.55,4.08-.72.77-1.8,1.16-2.84,1.18-.97.02-1.81-.27-2.69-.56-.46-.15-.9-.39-1.41-.27.87.93,2.74,1,2.75,2.29,0,1.51-2.59,2.43-4.25,2.5-.77.03-1.39-.24-1.95-.83-.85,1.47-3.57.61-4.9-.4-.45-.34-.57-.91-.76-1.44-1.31.68-2.42,1.47-3.51,2.36l-1.36,1.39c-.42.43-.72.98-.75,1.61l-.11,2.07Z"/>
            <g>
              <path class="cls-6" d="M28.07,57.74c-.88-.61-1.61-1.34-2.35-2.1-.51-.52-1.06-.97-1.33-1.76,1.57.78,2.57.17,3.58-1.08.26.42.33.83.32,1.25l-.02,3.04c0,.2-.02.38-.21.65Z"/>
              <path class="cls-6" d="M36.34,54.45c-.04.53-.3.99-.7,1.36-.8.75-1.71,1.38-2.72,1.82l.03-4.3c0-.08.06-.15.1-.17.29-.16.8,1.26,2.49,1.41l.8-.11Z"/>
              <path class="cls-6" d="M21.58,53.9c.67.31,1.59.93,1.49,1.27-.11.37-1.94-.75-2.45-1.75.4,0,.63.33.96.48Z"/>
              <path class="cls-6" d="M37.28,55.2c-.17-.53,1.05-1.04,1.8-1.1-.48.6-1.1.86-1.8,1.1Z"/>
              <rect class="cls-6" x="13.8" y="54.16" width=".07" height=".07" transform="translate(-34.27 25.66) rotate(-45)"/>
            </g>
          </g>
          <g>
            <path class="cls-3" d="M66.22,52.85c-3.34-3.23-7.45-3.14-7.8-3.39-.15-.11-.1-.31-.12-.5-.42-3.02-2.99-4.41-5.76-5.39,2.24-3.61,5.34-5.92,9.37-7.05,4.96-1.51,10.22-.51,14.34,2.62,2.32,1.76,4.11,4.03,5.23,6.83-2.93,1.19-5.58,2.68-8.24,4.33-2.09,1.3-3.99,2.74-5.9,4.3-.37-.67-.62-1.25-1.13-1.74Z"/>
            <path class="cls-3" d="M70.98,32.54c-2.31-.53-4.53-.71-6.86-.33l-4.07-23.73,2.08-.14c5.02-.33,9.99.27,15,1.46l-3.85,14.24-2.29,8.5Z"/>
            <path class="cls-3" d="M88.79,26.18l-3.49,3.93-5.87,6.6c-1.57-1.27-3.19-2.31-5.04-3.11l4.81-13.52,3.16-8.78c2.93,1.03,5.74,2.16,8.45,3.65l5.18,3.19-.91.97-6.28,7.07Z"/>
            <path class="cls-3" d="M55.61,35.2l-3.71-5.93-3.96-6.43-3.61-5.99-2.39-4,5.93-2.15c2.35-.72,4.64-1.3,7.15-1.68l2.56,10.66,3.1,13.21-3.88,1.62-1.18.69Z"/>
            <path class="cls-3" d="M84.43,43.07c-.75-1.4-1.49-2.66-2.59-3.83.32-.42.69-.72,1.05-1.06l1.56-1.47,1.86-1.77,3.53-3.42,3.53-3.42,1.67-1.58,1.57-1.47,1.96-1.86,1.78-1.72c3.34,2.8,6.29,5.92,8.85,9.43-.2.34-.52.38-.82.53l-4.01,1.96-4.02,1.96-3.17,1.54-7.38,3.58-3.55,1.75-1.81.85Z"/>
            <path class="cls-3" d="M46.51,33.23c-1.31-1.01-2.9-1.51-4.49-1.81l-2.48-.1c-.75-.26-1.26-.98-1.82-1.49l-.99-.89-3.25-2.73-3.31-2.86c-.73-.63-1.5-1.15-2.18-1.89,2.97-2.55,6.22-4.74,9.75-6.64l2.18,3.29,4.94,7.61,7.13,10.39.78,1.21-1.55,1.51c-.43-1.24-1.02-2.23-1.95-3.02l-.63-.93-2.14-1.64Z"/>
            <path class="cls-3" d="M102.14,41.12l-1.43.09-3.09.31-3.5.48c.59-.43,1.23-.62,1.89-.89l2.91-1.2,6.59-2.71,6.38-2.59,1.33,2.23c1.05,1.76,1.95,3.57,2.63,5.54-2.85-.54-5.55-.96-8.36-1.18l-1.09-.08h-4.26Z"/>
            <path class="cls-3" d="M21.77,30.75c-.13.14-.3.55-.53.46l-1.83-.7c.99-1.34,1.99-2.53,3.06-3.75l2.48-2.53,3.62,2.79c-1.15.21-2.18.47-3.12,1.06-.89.43-1.73.89-2.53,1.49l-1.14,1.19Z"/>
          </g>
          <g>
            <path class="cls-4" d="M89.74,90.13c-3.6.51-7.04,1.64-10.38,3.02-2.13.88-4.04,2.05-5.76,3.55-2.56,2.24-3.55,5-3.39,8.41-1.39-.84-2.57-1.67-3.72-2.62-.96-.85-1.84-1.67-2.61-2.69-2.04-2.73-1.33-5.97,1.19-8.1,3.05-2.58,7.33-4.37,11.2-5.47,5.46-1.56,11.03-2.42,16.71-2.89,7.55-.62,15.02-.44,22.6.82-1.25,2.83-2.65,5.54-4.36,8.12-2.35,3.54-5.04,6.79-8.14,9.69-4.75,4.42-10.07,8.06-16,10.84l-6.07-2.2-4.28-1.89-4.56-2.6c-1.38-4.93,1.57-8.61,5.69-11.04,3.7-2.28,7.69-3.7,11.89-4.94Z"/>
            <path class="cls-2" d="M43.48,105.11c1.36,2.48.44,5.98-1.88,7.61-2.95-1.34-5.76-2.82-8.44-4.62-1.37-.9-2.63-1.77-3.9-2.91l3.95-3.59c1.31-.09,2.5.12,3.76.41,1.75.53,3.43,1.1,5.07,1.89.58.27,1.13.65,1.44,1.21Z"/>
            <path class="cls-2" d="M78.35,115.83c-3.25.93-6.42,1.51-9.79,1.64-.8-.83-1.32-1.88-1.42-3.06-.06-.66.43-1.21,1.05-1.47,2.11-.88,4.34-1.43,6.65-1.67.91-.1,1.75.21,2.57.48l2.44,1c1,.41,1.94.89,2.82,1.55-1.45.7-2.8,1.09-4.31,1.52Z"/>
            <path class="cls-2" d="M64.31,112.07l-3.54-.53c-.32-.05-.67-.12-.86-.43-.66-1.04-.7-2.56.15-3.52.33-.37,1-.43,1.47-.49l4.98-.61c.85-.1,1.64.08,2.37.48,1.34.73,2.57,1.56,3.77,2.49.2.16.32.36.28.6-.03.16-.19.4-.43.47l-5.37,1.47c-.93.25-1.81.23-2.81.08Z"/>
            <path class="cls-2" d="M57.41,111.06c-1.66.34-3.29.15-4.82-.46l-2.87-.95-2.96-.76c-.31-.08-.57-.29-.68-.59-.35-.89-.82-2.41-.44-2.86.11-.13.36-.27.6-.26l3.43.21c2,.12,3.94.27,5.82.94l1.95.7c1.17.42,1.26,1.91.84,3.26-.12.38-.4.67-.86.77Z"/>
            <path class="cls-2" d="M44.22,102.24c-1.3.26-2.62-.03-3.78-.45l-3.46-1.25c-.41-.15-.76-.38-1.07-.76l3.84-2.53c.69-.45,1.44-.87,2.29-.92,1.92-.1,3.78.34,5.55,1.04,1.08.43.57,2.43-.7,3.41-.75.59-1.64,1.25-2.67,1.45Z"/>
            <path class="cls-2" d="M63.82,117.58l-3.64-.16c-1.9-.08-3.71-.39-5.59-.81l1.01-3.59c.08-.29.38-.44.62-.56.67-.21,1.34-.3,2.06-.24,2.03.16,4.01.49,5.97,1.05,1.41.4,2.01,2.69,1.95,4.3l-2.38.02Z"/>
            <path class="cls-2" d="M64.86,105.4c-2.04.53-4.07.82-6.14.64-1.29-.11-2.52-.47-3.73-.85s-1.25-2.3-.36-3.81c.34-.57.78-.96,1.5-.94l4.2.08c.68.01,1.14.27,1.6.76l2.85,3.01c.3.31.4.76.08,1.12Z"/>
            <path class="cls-2" d="M53.39,116.31c-2.24-.44-4.36-.9-6.48-1.59l-3.32-1.25c.48-.98.97-1.9,1.76-2.58.67-.58,1.75-.69,2.62-.54,1.75.29,3.42.78,5.01,1.53.66.31,1.25.95,1.24,1.65-.02.98-.42,1.81-.82,2.79Z"/>
            <path class="cls-2" d="M59.4,99.4c-2.5.02-4.86-.17-7.23-.73-1.04-.25-1.94-.83-1.69-1.07l1.45-1.39c.39-.37.71-.81,1.22-1.04.79-.35,1.7-.43,2.58-.34l3.26.33c.68.07,1.01.57,1.03,1.21l.08,2.27c.01.42-.23.74-.71.75Z"/>
            <path class="cls-2" d="M52,104.73c-1.65.21-3.52-.41-6.36.1-.3.05-.51-.2-.65-.39-.56-.78,1.04-1,2.13-2.34l1.54-1.9c.25-.31.65-.71,1.08-.77,1.09-.15,3.25-.06,3.74.55.23.28.29.68.18,1.02l-1.06,3.24c-.09.29-.32.45-.62.49Z"/>
            <path class="cls-2" d="M50.4,96.06c-.64.43-1.5.55-2.26.36l-3.36-.84c-.17-.04-.32-.21-.34-.33-.02-.13.07-.36.23-.43l3.79-1.67c.3-.13.69-.11.99,0l2.36.87c.22.08.38.27.39.46s-.09.44-.28.56l-1.53,1.02Z"/>
            <path class="cls-2" d="M64.72,89.9c-2.03,1.75-3.87.64-7.05,1.37-1.24.28-2.62-.12-2.61-.42.01-.4,6.12-2.04,7.72-2.32.88.14,2.07.37,2.13.88.02.15-.04.36-.19.49Z"/>
            <path class="cls-2" d="M56.9,92.48c.42,1.85-3.17,1.59-5.03,1.01-.52-.16-1.02-.36-1.36-.86.98-.6,2.05-1.06,3.16-1.13.88-.06,3.09.33,3.23.98Z"/>
            <path class="cls-2" d="M59.6,94.49l-2.28-.17c-.9-.07.11-1.84.72-2.18,1.18-.66,3.82-.71,3.52.27s-.94,2.16-1.96,2.08Z"/>
          </g>
        </g>
      </g>
      <g id="Generative_Object" data-name="Generative Object">
        <g>
          <g>
            <g>
              <polygon class="cls-9" points="293.8 62.84 287.75 62.82 281.38 47.02 281.3 62.82 275.01 62.81 275.05 31.92 281.11 31.91 287.45 47.71 287.54 31.92 293.8 31.94 293.8 62.84"/>
              <path class="cls-9" d="M165.29,53.12c0,2.26.55,4.44,2.47,4.7,1.16.15,2.25-.27,2.72-1.41s.43-2.41.51-3.69h6.3c.22,5.35-1.82,9.76-7.35,10.44-3.11.38-6.32-.17-8.58-2.51-1.49-1.55-2.23-3.78-2.34-5.99-.25-4.97-.27-9.83.02-14.8.15-2.64,1.24-5.21,3.33-6.72,2.45-1.77,5.55-1.98,8.43-1.39,4.85.99,6.78,5.43,6.46,10.16h-6.33c-.05-1.45.13-2.99-.74-4.23s-3.15-1.19-4.05.03c-.68.93-.82,2.12-.82,3.25l-.03,12.17Z"/>
              <polygon class="cls-7" points="261.76 57.41 261.78 62.82 246.99 62.83 246.99 31.94 253.27 31.93 253.28 57.41 261.76 57.41"/>
              <rect class="cls-9" x="252.32" y="44.21" width="31.01" height="6.4" transform="translate(220.33 315.22) rotate(-89.98)"/>
              <path class="cls-9" d="M235.25,31.49c-2.98-.24-5.99.44-8.06,2.67-1.46,1.57-2.11,3.72-2.21,5.93-.22,4.82-.2,9.49-.02,14.31.08,2.22.67,4.42,2.14,6.04,2.11,2.34,5.28,3.12,8.37,2.77,5.15-.58,7.88-4.33,7.89-9.43v-12.41c.02-5.39-2.62-9.43-8.1-9.87ZM234.08,57.86c-1.28-.03-2.33-.78-2.49-2.17l-.33-2.78.04-11.71c0-1.23.16-2.57.9-3.58.79-1.08,2.84-1.15,3.71-.15.85.99,1.04,2.39,1.04,3.67l.03,11.77c0,2.63-.58,5-2.89,4.95Z"/>
              <path class="cls-7" d="M218.01,49.65c3.86-2.36,3.85-7.31,3.31-11.69-.56-3.53-3.31-5.93-6.88-5.96l-10.69-.08v30.88s6.35,0,6.35,0v-11.77c.84-.11,1.46-.12,2.15.05l3.52,11.73,6.67-.06-4.42-13.11ZM214.99,43.9c-.29.93-.94,1.62-1.84,1.63l-3.07.05v-8.26s2.91,0,2.91,0c1.07,0,1.82.74,2.02,1.78.34,1.56.27,3.15-.02,4.81Z"/>
              <path class="cls-7" d="M197.38,47.95l-4.18-16.05-6.57.04-7.89,30.87h6.45s1.24-5.78,1.24-5.78l6.96.02,1.29,5.83,6.64-.07-3.94-14.85ZM187.48,51.73l2.43-11.75,2.34,11.69-4.77.05Z"/>
              <path class="cls-9" d="M310.45,31.95l-6.57-.02-7.87,30.87,6.44.02,1.17-5.78h6.98s1.25,5.78,1.25,5.78l6.68-.02-8.07-30.85ZM304.76,51.73l2.19-11.06c-.11-.19-.08-.62.26-.61.19,0,.24.56.1.77l2.19,10.91-4.74-.02Z"/>
            </g>
            <g>
              <polygon class="cls-9" points="362.36 62.83 355.8 62.79 352.7 52.97 349.55 62.84 343.17 62.8 349.31 46.93 343.49 31.93 349.86 31.94 352.74 41.16 355.54 31.93 361.89 31.94 356.08 46.91 362.36 62.83"/>
              <polygon class="cls-9" points="340.55 49.72 333.84 49.76 333.84 57.41 341.93 57.44 341.92 62.86 327.55 62.85 327.55 31.93 341.92 31.92 341.94 37.29 333.84 37.29 333.83 44.43 340.54 44.44 340.55 49.72"/>
              <polygon class="cls-7" points="394.95 49.72 388.14 49.78 388.13 57.41 396.23 57.41 396.24 62.84 381.83 62.82 381.83 31.92 396.22 31.92 396.22 37.28 388.14 37.32 388.13 44.41 394.93 44.44 394.95 49.72"/>
              <polygon class="cls-9" points="374.48 62.84 368.14 62.83 368.14 37.3 363.07 37.29 363.07 31.92 379.62 31.92 379.61 37.29 374.48 37.3 374.48 62.84"/>
              <rect class="cls-9" x="420.66" y="31.9" width="6.41" height="30.96"/>
              <path class="cls-7" d="M413.43,49.69c3.93-2.33,3.93-7.42,3.35-11.8-.55-3.47-3.24-5.85-6.76-5.88l-10.7-.09-.02,30.9,6.31-.02v-11.8s2.09.03,2.09.03l3.53,11.77,6.66-.05-4.47-13.06ZM408.37,45.59h-2.76s0-8.28,0-8.28h2.97c.96.02,1.62.64,1.87,1.58.68,2.62.52,6.7-2.08,6.7Z"/>
              <path class="cls-9" d="M448.92,41.45c0-4.01-1.42-7.85-5.24-9.29-3.09-1.16-6.6-.98-9.42.85-2.15,1.39-3.51,3.85-3.52,6.47l-.05,15.54c-.01,3.19,1.79,6,4.62,7.31,2.92,1.35,6.28,1.27,9.13-.12,3.3-1.62,4.51-5.25,4.51-8.89l-.02-11.87ZM439.95,57.84c-.94.02-1.88-.26-2.35-1.19-.45-.91-.64-1.97-.64-3.02v-12.6c0-1.14.22-2.33.77-3.29.45-.78,1.4-.96,2.21-.92,2.21.09,2.64,2.58,2.64,5.19v10.91c0,2.48-.51,4.9-2.64,4.93Z"/>
              <path class="cls-7" d="M466.57,49.7c3.98-2.29,4.04-7.85,3.27-12.23-.73-3.28-3.35-5.43-6.72-5.46l-10.65-.09v30.88s6.23,0,6.23,0l.03-11.8,2.06.02,3.59,11.81,6.64-.03-4.44-13.1ZM461.46,45.6h-2.77s0-8.3,0-8.3l2.97.02c1.02,0,1.72.68,1.97,1.66.49,2.98.52,6.61-2.17,6.62Z"/>
            </g>
          </g>
          <g>
            <polygon class="cls-1" points="275.13 93.8 272.21 93.86 265.41 85.29 265.33 93.89 262.02 93.88 261.99 79.24 264.76 79.26 271.75 87.86 271.79 79.24 275.11 79.24 275.13 93.8"/>
            <rect class="cls-1" x="187.29" y="60.83" width="2.55" height="50.44" transform="translate(102.45 274.6) rotate(-89.98)"/>
            <rect class="cls-1" x="418.4" y="84.78" width="50.45" height="2.55"/>
            <polygon class="cls-1" points="388.56 87.69 381.87 87.75 381.87 91.01 389.76 91.01 389.78 93.9 378.51 93.89 378.5 79.22 389.45 79.22 389.43 82.08 381.91 82.09 381.87 85.02 388.53 85.02 388.56 87.69"/>
            <path class="cls-1" d="M314.08,90.93c-1.37,4.02-8.35,3.99-11.91,1.46l1.2-2.71c2.69,2.12,7.52,2.18,7.5.15,0-.56-.43-1.1-1.08-1.28l-4.52-1.24c-1.49-.41-2.54-1.66-2.76-2.93-.29-1.64.24-3.02,1.48-4.04,2.33-1.92,6.85-1.75,9.62,0l-1.09,2.64c-2.71-1.74-6.66-1.46-6.64.42,0,.6.54,1.09,1.2,1.27l4.53,1.23c2.15.58,3.21,2.82,2.46,5.03Z"/>
            <path class="cls-1" d="M404.78,93.52c-3.07,1.18-6.51.62-9.31-1.04.26-1.06.74-1.82,1.2-2.78,2.38,1.96,7.11,2.21,7.43.32.1-.58-.23-1.21-.85-1.38l-3.21-.88c-1.1-.3-2.25-.59-3.11-1.36-1.09-.98-1.45-2.41-1.08-3.94.91-3.84,7.27-4.43,11.01-2.14l-1.11,2.64c-2.52-1.54-6.36-1.52-6.62.26-.08.59.28,1.2.93,1.37l4.06,1.09c1.14.31,2.26.93,2.87,2.02,1.19,2.12.24,4.9-2.21,5.84Z"/>
            <path class="cls-1" d="M331.3,89.39c.95.54,1.51,1.31,2.29,2.07-1.48,1.96-3.72,2.72-6.1,2.69-4.31-.05-7.6-3.33-7.57-7.65s3.3-7.5,7.57-7.53c2.38-.01,4.65.8,6.06,2.68l-2.22,2.1c-1.28-1.65-3.31-2.16-5.16-1.49s-2.85,2.41-2.78,4.46c.07,1.91,1.15,3.61,2.84,4.17,1.8.6,3.76.22,5.07-1.51Z"/>
            <polygon class="cls-1" points="235.85 91 235.88 93.89 225.34 93.88 225.36 79.24 228.74 79.22 228.74 90.95 235.85 91"/>
            <path class="cls-1" d="M295.11,81.86c-1.42-1.56-3.34-2.59-5.5-2.6l-7.21-.05v14.68s7.25-.05,7.25-.05c2.45-.02,4.61-1.24,5.97-3.35,1.54-2.85,1.36-6.11-.51-8.64ZM289.17,90.98h-3.36s0-8.82,0-8.82l3.59.03c2.29.02,3.86,2.07,3.81,4.41-.06,2.46-1.65,4.38-4.03,4.38Z"/>
            <path class="cls-1" d="M250.05,79.25l-3.51-.02-6.28,14.63,3.47.05,1.28-3.08,6.64.02,1.19,3.06,3.65-.06-6.43-14.61ZM246.11,88.06l2.18-5.35,2.11,5.27-4.29.08Z"/>
            <path class="cls-1" d="M347.7,79.22l-3.5.03-6.29,14.61,3.55.02,1.26-3.08,6.55.03,1.22,3.05,3.61-.03-6.39-14.64ZM343.82,88.05l2.13-5.28,2.12,5.23-4.25.06Z"/>
            <path class="cls-1" d="M367.19,79.33l-7.57-.11.03,14.66h3.37s.06-4.12.06-4.12l4.18-.07c2.93-.29,4.89-2.43,4.88-5.21-.01-2.74-1.99-4.86-4.95-5.16ZM366.34,86.93h-3.31s.04-4.81.04-4.81l3.28.02c1.39,0,2.39,1.07,2.39,2.34,0,1.29-.85,2.45-2.39,2.45Z"/>
          </g>
        </g>
      </g>
    </g>
  </g>
</svg>